<svg width="1200" height="760" viewBox="0 0 1200 760" fill="none" xmlns="http://www.w3.org/2000/svg"><rect width="1200" height="760" rx="36" fill="#0F172A"/><circle cx="1030" cy="120" r="130" fill="#2563EB" fill-opacity="0.18"/><circle cx="210" cy="650" r="150" fill="#38BDF8" fill-opacity="0.12"/><rect x="88" y="96" width="460" height="568" rx="28" fill="#111827" stroke="#334155"/><rect x="132" y="144" width="170" height="16" rx="8" fill="#93C5FD"/><rect x="132" y="182" width="310" height="13" rx="6.5" fill="#475569"/><rect x="132" y="206" width="280" height="13" rx="6.5" fill="#475569"/><rect x="132" y="258" width="372" height="136" rx="22" fill="#EFF6FF"/><rect x="160" y="290" width="160" height="14" rx="7" fill="#1D4ED8"/><rect x="160" y="322" width="280" height="12" rx="6" fill="#94A3B8"/><rect x="160" y="346" width="240" height="12" rx="6" fill="#94A3B8"/><rect x="132" y="430" width="372" height="172" rx="22" fill="#0F172A" stroke="#334155"/><rect x="162" y="466" width="190" height="14" rx="7" fill="#C7D2FE"/><rect x="162" y="500" width="286" height="12" rx="6" fill="#334155"/><rect x="162" y="524" width="240" height="12" rx="6" fill="#334155"/><rect x="162" y="566" width="132" height="40" rx="12" fill="#2563EB"/><rect x="624" y="116" width="490" height="174" rx="28" fill="white"/><rect x="664" y="158" width="210" height="16" rx="8" fill="#1E3A8A" fill-opacity="0.18"/><rect x="664" y="196" width="320" height="14" rx="7" fill="#CBD5E1"/><rect x="664" y="224" width="280" height="14" rx="7" fill="#CBD5E1"/><rect x="624" y="330" width="490" height="158" rx="28" fill="#EFF6FF" stroke="#BFDBFE"/><path d="M692 432L770 380L830 410L930 350L1040 384" stroke="#2563EB" stroke-width="10" stroke-linecap="round" stroke-linejoin="round"/><circle cx="692" cy="432" r="11" fill="#2563EB"/><circle cx="770" cy="380" r="11" fill="#2563EB"/><circle cx="830" cy="410" r="11" fill="#2563EB"/><circle cx="930" cy="350" r="11" fill="#2563EB"/><circle cx="1040" cy="384" r="11" fill="#2563EB"/><rect x="624" y="528" width="490" height="124" rx="28" fill="#111827"/><rect x="664" y="568" width="170" height="14" rx="7" fill="#93C5FD"/><rect x="664" y="600" width="300" height="12" rx="6" fill="#334155"/></svg>