<svg width="1200" height="720" viewBox="0 0 1200 720" fill="none" xmlns="http://www.w3.org/2000/svg"><rect width="1200" height="720" rx="36" fill="#F8FAFC"/><rect x="88" y="88" width="1024" height="544" rx="30" fill="white" stroke="#E2E8F0"/><rect x="136" y="140" width="320" height="368" rx="24" fill="#0F172A"/><rect x="176" y="184" width="152" height="14" rx="7" fill="#93C5FD"/><rect x="176" y="216" width="216" height="12" rx="6" fill="#334155"/><rect x="176" y="240" width="192" height="12" rx="6" fill="#334155"/><rect x="520" y="140" width="544" height="176" rx="24" fill="#EFF6FF"/><rect x="560" y="186" width="190" height="14" rx="7" fill="#1D4ED8"/><rect x="560" y="220" width="340" height="12" rx="6" fill="#94A3B8"/><rect x="560" y="244" width="292" height="12" rx="6" fill="#94A3B8"/><rect x="520" y="364" width="544" height="144" rx="24" fill="#F8FAFC" stroke="#E2E8F0"/><path d="M592 452L656 408L726 432L796 380L888 424L992 344" stroke="#2563EB" stroke-width="10" stroke-linecap="round" stroke-linejoin="round"/><circle cx="592" cy="452" r="10" fill="#2563EB"/><circle cx="656" cy="408" r="10" fill="#2563EB"/><circle cx="726" cy="432" r="10" fill="#2563EB"/><circle cx="796" cy="380" r="10" fill="#2563EB"/><circle cx="888" cy="424" r="10" fill="#2563EB"/><circle cx="992" cy="344" r="10" fill="#2563EB"/></svg>