<svg width="1200" height="760" viewBox="0 0 1200 760" fill="none" xmlns="http://www.w3.org/2000/svg"><rect width="1200" height="760" rx="36" fill="#111827"/><circle cx="150" cy="120" r="110" fill="#1D4ED8" fill-opacity="0.14"/><circle cx="1060" cy="680" r="140" fill="#38BDF8" fill-opacity="0.12"/><rect x="92" y="104" width="1016" height="552" rx="30" fill="#0F172A" stroke="#1F2937"/><rect x="138" y="156" width="420" height="282" rx="24" fill="white"/><rect x="174" y="198" width="160" height="15" rx="7.5" fill="#1D4ED8" fill-opacity="0.16"/><rect x="174" y="234" width="280" height="13" rx="6.5" fill="#CBD5E1"/><rect x="174" y="258" width="240" height="13" rx="6.5" fill="#CBD5E1"/><rect x="174" y="316" width="140" height="44" rx="14" fill="#2563EB"/><rect x="612" y="156" width="450" height="204" rx="24" fill="#EFF6FF"/><rect x="652" y="198" width="180" height="15" rx="7.5" fill="#166534" fill-opacity="0.18"/><rect x="652" y="234" width="304" height="13" rx="6.5" fill="#94A3B8"/><rect x="652" y="258" width="260" height="13" rx="6.5" fill="#94A3B8"/><path d="M676 322L748 276L812 302L904 226L998 262" stroke="#16A34A" stroke-width="10" stroke-linecap="round" stroke-linejoin="round"/><rect x="138" y="474" width="924" height="124" rx="24" fill="white"/><rect x="184" y="514" width="220" height="15" rx="7.5" fill="#0F172A"/><rect x="184" y="548" width="340" height="13" rx="6.5" fill="#CBD5E1"/><rect x="790" y="510" width="190" height="42" rx="14" fill="#2563EB"/></svg>