<svg width="1200" height="900" viewBox="0 0 1200 900" fill="none" xmlns="http://www.w3.org/2000/svg">
  <rect width="1200" height="900" rx="40" fill="#F8FAFC"/>
  <rect x="64" y="64" width="1072" height="772" rx="32" fill="url(#bg)"/>
  <circle cx="980" cy="180" r="120" fill="#DBEAFE"/>
  <circle cx="200" cy="720" r="140" fill="#E0F2FE"/>
  <rect x="128" y="150" width="420" height="520" rx="28" fill="white" stroke="#BFDBFE" stroke-width="2"/>
  <rect x="164" y="198" width="220" height="18" rx="9" fill="#1D4ED8" fill-opacity="0.16"/>
  <rect x="164" y="236" width="320" height="14" rx="7" fill="#CBD5E1"/>
  <rect x="164" y="264" width="280" height="14" rx="7" fill="#CBD5E1"/>
  <rect x="164" y="322" width="348" height="92" rx="20" fill="#EFF6FF"/>
  <rect x="188" y="348" width="132" height="12" rx="6" fill="#1D4ED8"/>
  <rect x="188" y="374" width="220" height="10" rx="5" fill="#94A3B8"/>
  <rect x="188" y="392" width="180" height="10" rx="5" fill="#94A3B8"/>
  <rect x="164" y="438" width="348" height="92" rx="20" fill="#F8FAFC" stroke="#E2E8F0"/>
  <rect x="188" y="464" width="132" height="12" rx="6" fill="#0F172A"/>
  <rect x="188" y="490" width="220" height="10" rx="5" fill="#94A3B8"/>
  <rect x="188" y="508" width="180" height="10" rx="5" fill="#94A3B8"/>
  <rect x="620" y="140" width="420" height="240" rx="28" fill="white" stroke="#BFDBFE" stroke-width="2"/>
  <path d="M676 315C712 268 744 246 782 246C826 246 842 300 882 300C922 300 936 234 996 208" stroke="#2563EB" stroke-width="10" stroke-linecap="round"/>
  <circle cx="676" cy="315" r="12" fill="#2563EB"/>
  <circle cx="782" cy="246" r="12" fill="#2563EB"/>
  <circle cx="882" cy="300" r="12" fill="#2563EB"/>
  <circle cx="996" cy="208" r="12" fill="#2563EB"/>
  <rect x="620" y="430" width="420" height="240" rx="28" fill="#0F172A"/>
  <rect x="656" y="474" width="160" height="16" rx="8" fill="#93C5FD"/>
  <rect x="656" y="508" width="308" height="12" rx="6" fill="#475569"/>
  <rect x="656" y="530" width="272" height="12" rx="6" fill="#475569"/>
  <rect x="656" y="576" width="120" height="42" rx="12" fill="#2563EB"/>
  <rect x="794" y="576" width="120" height="42" rx="12" fill="#1E293B" stroke="#475569"/>
  <defs>
    <linearGradient id="bg" x1="64" y1="64" x2="1136" y2="836" gradientUnits="userSpaceOnUse">
      <stop stop-color="#EFF6FF"/>
      <stop offset="1" stop-color="#F8FAFC"/>
    </linearGradient>
  </defs>
</svg>