<svg width="1200" height="720" viewBox="0 0 1200 720" fill="none" xmlns="http://www.w3.org/2000/svg">
  <rect width="1200" height="720" rx="36" fill="#EEF2FF"/>
  <rect x="90" y="90" width="1020" height="540" rx="30" fill="white"/>
  <rect x="150" y="150" width="300" height="360" rx="28" fill="#F8FAFC" stroke="#E2E8F0"/>
  <rect x="190" y="194" width="120" height="14" rx="7" fill="#4338CA"/>
  <rect x="190" y="228" width="200" height="12" rx="6" fill="#CBD5E1"/>
  <rect x="190" y="252" width="172" height="12" rx="6" fill="#CBD5E1"/>
  <rect x="580" y="150" width="420" height="160" rx="24" fill="#111827"/>
  <rect x="620" y="190" width="140" height="14" rx="7" fill="#C7D2FE"/>
  <rect x="620" y="224" width="250" height="12" rx="6" fill="#374151"/>
  <rect x="620" y="248" width="210" height="12" rx="6" fill="#374151"/>
  <rect x="580" y="350" width="420" height="160" rx="24" fill="#EEF2FF" stroke="#C7D2FE"/>
  <rect x="620" y="392" width="150" height="14" rx="7" fill="#4338CA"/>
  <rect x="620" y="426" width="220" height="12" rx="6" fill="#94A3B8"/>
  <rect x="620" y="450" width="180" height="12" rx="6" fill="#94A3B8"/>
  <path d="M450 330H580" stroke="#4338CA" stroke-width="10" stroke-linecap="round" stroke-dasharray="18 18"/>
</svg>