<svg width="1200" height="720" viewBox="0 0 1200 720" fill="none" xmlns="http://www.w3.org/2000/svg">
  <rect width="1200" height="720" rx="36" fill="#EFF6FF"/>
  <rect x="70" y="70" width="1060" height="580" rx="30" fill="white"/>
  <rect x="120" y="126" width="300" height="420" rx="24" fill="#F8FAFC" stroke="#E2E8F0"/>
  <rect x="156" y="166" width="130" height="14" rx="7" fill="#1D4ED8"/>
  <rect x="156" y="198" width="210" height="12" rx="6" fill="#CBD5E1"/>
  <rect x="156" y="220" width="180" height="12" rx="6" fill="#CBD5E1"/>
  <circle cx="270" cy="350" r="74" fill="#DBEAFE"/>
  <circle cx="250" cy="340" r="18" fill="#2563EB"/>
  <rect x="214" y="372" width="110" height="58" rx="18" fill="#2563EB"/>
  <rect x="486" y="126" width="250" height="180" rx="24" fill="#0F172A"/>
  <rect x="520" y="166" width="110" height="14" rx="7" fill="#93C5FD"/>
  <rect x="520" y="198" width="150" height="12" rx="6" fill="#334155"/>
  <rect x="520" y="220" width="120" height="12" rx="6" fill="#334155"/>
  <rect x="802" y="126" width="280" height="180" rx="24" fill="#EFF6FF" stroke="#BFDBFE"/>
  <path d="M850 250C884 220 902 186 936 186C966 186 980 218 1018 218" stroke="#2563EB" stroke-width="8" stroke-linecap="round"/>
  <circle cx="850" cy="250" r="10" fill="#2563EB"/>
  <circle cx="936" cy="186" r="10" fill="#2563EB"/>
  <circle cx="1018" cy="218" r="10" fill="#2563EB"/>
  <rect x="486" y="342" width="596" height="204" rx="24" fill="#F8FAFC" stroke="#E2E8F0"/>
  <rect x="526" y="386" width="180" height="14" rx="7" fill="#0F172A"/>
  <rect x="526" y="420" width="220" height="12" rx="6" fill="#CBD5E1"/>
  <rect x="526" y="444" width="190" height="12" rx="6" fill="#CBD5E1"/>
  <rect x="526" y="480" width="140" height="40" rx="12" fill="#2563EB"/>
</svg>