<svg width="1200" height="720" viewBox="0 0 1200 720" fill="none" xmlns="http://www.w3.org/2000/svg">
  <rect width="1200" height="720" rx="36" fill="#F0FDF4"/>
  <rect x="80" y="80" width="1040" height="560" rx="30" fill="white"/>
  <rect x="130" y="170" width="210" height="210" rx="26" fill="#DCFCE7"/>
  <rect x="495" y="120" width="210" height="210" rx="26" fill="#DCFCE7"/>
  <rect x="860" y="170" width="210" height="210" rx="26" fill="#DCFCE7"/>
  <path d="M340 275H495" stroke="#16A34A" stroke-width="10" stroke-linecap="round"/>
  <path d="M705 275H860" stroke="#16A34A" stroke-width="10" stroke-linecap="round"/>
  <circle cx="235" cy="238" r="26" fill="#16A34A"/>
  <circle cx="600" cy="188" r="26" fill="#16A34A"/>
  <circle cx="965" cy="238" r="26" fill="#16A34A"/>
  <rect x="180" y="462" width="840" height="110" rx="24" fill="#F8FAFC" stroke="#D1FAE5"/>
  <rect x="230" y="500" width="200" height="14" rx="7" fill="#166534"/>
  <rect x="230" y="530" width="320" height="12" rx="6" fill="#94A3B8"/>
  <rect x="740" y="496" width="180" height="40" rx="12" fill="#16A34A"/>
</svg>